<svg xmlns="http://www.w3.org/2000/svg" width="32" height="48" viewBox="0 0 32 48">
  <defs>
    <style>
      .cls-1 {
        fill: #fff;
        fill-rule: evenodd;
      }
    </style>
  </defs>
  <path id="icon.svg" class="cls-1" d="M806.324,728H803.67c-8.253.618-14.672,7.068-14.672,14.817v18.254C789,769.3,796.176,776,805,776s16-6.7,16-14.931V742.811C821,735.068,814.58,728.617,806.324,728ZM818,760.868c0,6.685-5.833,12.119-13,12.119s-13-5.434-13-12.119V743.1c0-6.683,5.832-12.118,13-12.118s13,5.435,13,12.118v17.765ZM805,741a1.981,1.981,0,0,0-2,1.967v5.066a2,2,0,0,0,3.992,0v-5.066A1.982,1.982,0,0,0,805,741Z" transform="translate(-789 -728)"/>
</svg>
